<svg width="28" height="28" viewBox="0 0 28 28" fill="none" xmlns="http://www.w3.org/2000/svg">
<path d="M23.4501 22.4001C23.4501 22.6786 23.3394 22.9456 23.1425 23.1426C22.9456 23.3395 22.6785 23.4501 22.4001 23.4501H5.60005C5.32157 23.4501 5.0545 23.3395 4.85759 23.1426C4.66067 22.9456 4.55005 22.6786 4.55005 22.4001V11.3646C4.54994 11.2046 4.5864 11.0467 4.65664 10.9029C4.72688 10.7591 4.82905 10.6333 4.95535 10.5351L13.3553 4.00199C13.5397 3.85861 13.7665 3.78076 14 3.78076C14.2336 3.78076 14.4604 3.85861 14.6447 4.00199L23.0448 10.5351C23.171 10.6333 23.2732 10.7591 23.3435 10.9029C23.4137 11.0467 23.4502 11.2046 23.4501 11.3646V22.4001V22.4001ZM21.35 21.3501V11.877L14 6.16079L6.65005 11.877V21.3501H21.35ZM8.75005 17.1501H19.25V19.2501H8.75005V17.1501Z" fill="#374BFB"/>
</svg>
