<svg width="29" height="28" viewBox="0 0 29 28" fill="none" xmlns="http://www.w3.org/2000/svg">
<path d="M11.9751 14.4375L9.7876 16.625L11.9751 18.8125L14.1626 16.625L11.9751 14.4375ZM17.2251 5.6875C14.2259 5.6875 11.769 8.00891 11.553 10.9529C8.60901 11.1689 6.2876 13.6259 6.2876 16.625C6.2876 19.7662 8.83398 22.3125 11.9751 22.3125C14.9742 22.3125 17.4312 19.9911 17.6472 17.0471C20.5912 16.8311 22.9126 14.3741 22.9126 11.375C22.9126 8.23388 20.3663 5.6875 17.2251 5.6875ZM17.5081 15.3025C17.0129 13.2235 15.3766 11.5871 13.2976 11.0921C13.4426 9.0495 15.1456 7.4375 17.2251 7.4375C19.3997 7.4375 21.1626 9.20038 21.1626 11.375C21.1626 13.4545 19.5506 15.1574 17.5081 15.3025ZM15.9126 16.625C15.9126 18.7996 14.1497 20.5625 11.9751 20.5625C9.80048 20.5625 8.0376 18.7996 8.0376 16.625C8.0376 14.4504 9.80048 12.6875 11.9751 12.6875C14.1497 12.6875 15.9126 14.4504 15.9126 16.625ZM6.7251 9.625C6.7251 7.692 8.2921 6.125 10.2251 6.125H11.5376V7.875H10.2251C9.2586 7.875 8.4751 8.6585 8.4751 9.625V10.9375H6.7251V9.625ZM20.7251 18.375V17.0625H22.4751V18.375C22.4751 20.308 20.9081 21.875 18.9751 21.875H17.6626V20.125H18.9751C19.9416 20.125 20.7251 19.3415 20.7251 18.375Z" fill="#868898"/>
</svg>
