<svg width="20" height="20" viewBox="0 0 20 20" fill="none" xmlns="http://www.w3.org/2000/svg">
<mask id="path-1-inside-1_14318_9930" fill="white">
<path d="M2 10C2 5.58172 5.58172 2 10 2C14.4183 2 18 5.58172 18 10C18 14.4183 14.4183 18 10 18C5.58172 18 2 14.4183 2 10Z"/>
</mask>
<g filter="url(#filter0_i_14318_9930)">
<path d="M2 10C2 5.58172 5.58172 2 10 2C14.4183 2 18 5.58172 18 10C18 14.4183 14.4183 18 10 18C5.58172 18 2 14.4183 2 10Z" fill="#374BFB"/>
</g>
<path d="M2 9C2 4.58172 5.58172 1 10 1C14.4183 1 18 4.58172 18 9V10C18 6.13401 14.4183 3 10 3C5.58172 3 2 6.13401 2 10V9ZM18 18H2H18ZM2 18V2V18ZM18 2V18V2Z" fill="#2532A7" mask="url(#path-1-inside-1_14318_9930)"/>
<g filter="url(#filter1_di_14318_9930)">
<rect x="6" y="6" width="8" height="8" rx="4" fill="white"/>
<rect x="6.5" y="6.5" width="7" height="7" rx="3.5" stroke="white"/>
</g>
<defs>
<filter id="filter0_i_14318_9930" x="2" y="2" width="16" height="18" filterUnits="userSpaceOnUse" color-interpolation-filters="sRGB">
<feFlood flood-opacity="0" result="BackgroundImageFix"/>
<feBlend mode="normal" in="SourceGraphic" in2="BackgroundImageFix" result="shape"/>
<feColorMatrix in="SourceAlpha" type="matrix" values="0 0 0 0 0 0 0 0 0 0 0 0 0 0 0 0 0 0 127 0" result="hardAlpha"/>
<feOffset dy="2"/>
<feGaussianBlur stdDeviation="1"/>
<feComposite in2="hardAlpha" operator="arithmetic" k2="-1" k3="1"/>
<feColorMatrix type="matrix" values="0 0 0 0 0.0864 0 0 0 0 0.14784 0 0 0 0 0.3936 0 0 0 0.32 0"/>
<feBlend mode="normal" in2="shape" result="effect1_innerShadow_14318_9930"/>
</filter>
<filter id="filter1_di_14318_9930" x="4" y="4" width="12" height="14" filterUnits="userSpaceOnUse" color-interpolation-filters="sRGB">
<feFlood flood-opacity="0" result="BackgroundImageFix"/>
<feColorMatrix in="SourceAlpha" type="matrix" values="0 0 0 0 0 0 0 0 0 0 0 0 0 0 0 0 0 0 127 0" result="hardAlpha"/>
<feOffset dy="2"/>
<feGaussianBlur stdDeviation="1"/>
<feColorMatrix type="matrix" values="0 0 0 0 0.105882 0 0 0 0 0.109804 0 0 0 0 0.113725 0 0 0 0.12 0"/>
<feBlend mode="normal" in2="BackgroundImageFix" result="effect1_dropShadow_14318_9930"/>
<feBlend mode="normal" in="SourceGraphic" in2="effect1_dropShadow_14318_9930" result="shape"/>
<feColorMatrix in="SourceAlpha" type="matrix" values="0 0 0 0 0 0 0 0 0 0 0 0 0 0 0 0 0 0 127 0" result="hardAlpha"/>
<feOffset dy="-2"/>
<feGaussianBlur stdDeviation="1.5"/>
<feComposite in2="hardAlpha" operator="arithmetic" k2="-1" k3="1"/>
<feColorMatrix type="matrix" values="0 0 0 0 0.813571 0 0 0 0 0.82 0 0 0 0 0.826429 0 0 0 1 0"/>
<feBlend mode="normal" in2="shape" result="effect2_innerShadow_14318_9930"/>
</filter>
</defs>
</svg>
