<svg width="38" height="48" viewBox="0 0 38 48" fill="none" xmlns="http://www.w3.org/2000/svg">
<g filter="url(#filter0_d_12892_62520)">
<rect x="2" y="1" width="44" height="44" rx="16" fill="#35B9E9"/>
<path d="M27.75 20V15.5H30C30.1989 15.5 30.3897 15.579 30.5303 15.7197C30.671 15.8603 30.75 16.0511 30.75 16.25V19.25C30.75 19.4489 30.671 19.6397 30.5303 19.7803C30.3897 19.921 30.1989 20 30 20H27.75ZM26.25 30.5C26.25 30.6989 26.171 30.8897 26.0303 31.0303C25.8897 31.171 25.6989 31.25 25.5 31.25H22.5C22.3011 31.25 22.1103 31.171 21.9697 31.0303C21.829 30.8897 21.75 30.6989 21.75 30.5V20H16.875V18.5555C16.8751 18.4245 16.9095 18.2959 16.9747 18.1823C17.04 18.0687 17.1339 17.9743 17.247 17.9082L21.375 15.5H26.25V30.5Z" fill="white"/>
</g>
<defs>
<filter id="filter0_d_12892_62520" x="0" y="0" width="48" height="48" filterUnits="userSpaceOnUse" color-interpolation-filters="sRGB">
<feFlood flood-opacity="0" result="BackgroundImageFix"/>
<feColorMatrix in="SourceAlpha" type="matrix" values="0 0 0 0 0 0 0 0 0 0 0 0 0 0 0 0 0 0 127 0" result="hardAlpha"/>
<feOffset dy="1"/>
<feGaussianBlur stdDeviation="1"/>
<feComposite in2="hardAlpha" operator="out"/>
<feColorMatrix type="matrix" values="0 0 0 0 0.214953 0 0 0 0 0.364486 0 0 0 0 0.985047 0 0 0 0.08 0"/>
<feBlend mode="normal" in2="BackgroundImageFix" result="effect1_dropShadow_12892_62520"/>
<feBlend mode="normal" in="SourceGraphic" in2="effect1_dropShadow_12892_62520" result="shape"/>
</filter>
</defs>
</svg>
