<svg width="345" height="136" viewBox="0 0 345 136" fill="none" xmlns="http://www.w3.org/2000/svg">
<g clip-path="url(#clip0_12155_29446)">
<rect width="345" height="136" fill="#2532A7"/>
<g style="mix-blend-mode:multiply" opacity="0.3">
<path d="M421.815 -53C421.815 40.3491 346.404 116 253.408 116C160.412 116 85 40.3491 85 -53C85 -146.349 160.412 -222 253.408 -222C346.404 -222 421.815 -146.349 421.815 -53Z" stroke="#2532A7" stroke-width="8"/>
<path d="M76.8151 -53C76.8151 40.3491 1.4035 116 -91.5925 116C-184.588 116 -260 40.3491 -260 -53C-260 -146.349 -184.588 -222 -91.5925 -222C1.4035 -222 76.8151 -146.349 76.8151 -53Z" stroke="#2532A7" stroke-width="8"/>
<path d="M421.815 120C421.815 213.349 346.404 289 253.408 289C160.412 289 85 213.349 85 120C85 26.6509 160.412 -49 253.408 -49C346.404 -49 421.815 26.6509 421.815 120Z" stroke="#2532A7" stroke-width="8"/>
<path d="M76.8151 120C76.8151 213.349 1.4035 289 -91.5925 289C-184.588 289 -260 213.349 -260 120C-260 26.6509 -184.588 -49 -91.5925 -49C1.4035 -49 76.8151 26.6509 76.8151 120Z" stroke="#2532A7" stroke-width="8"/>
<path d="M605.815 -53C605.815 40.3491 530.404 116 437.408 116C344.412 116 269 40.3491 269 -53C269 -146.349 344.412 -222 437.408 -222C530.404 -222 605.815 -146.349 605.815 -53Z" stroke="#2532A7" stroke-width="8"/>
<path d="M260.815 -53C260.815 40.3491 185.404 116 92.4075 116C-0.588448 116 -76 40.3491 -76 -53C-76 -146.349 -0.588448 -222 92.4075 -222C185.404 -222 260.815 -146.349 260.815 -53Z" stroke="#2532A7" stroke-width="8"/>
<path d="M605.815 120C605.815 213.349 530.404 289 437.408 289C344.412 289 269 213.349 269 120C269 26.6509 344.412 -49 437.408 -49C530.404 -49 605.815 26.6509 605.815 120Z" stroke="#2532A7" stroke-width="8"/>
<path d="M260.815 120C260.815 213.349 185.404 289 92.4075 289C-0.588448 289 -76 213.349 -76 120C-76 26.6509 -0.588448 -49 92.4075 -49C185.404 -49 260.815 26.6509 260.815 120Z" stroke="#2532A7" stroke-width="8"/>
</g>
</g>
<defs>
<clipPath id="clip0_12155_29446">
<rect width="345" height="136" fill="white"/>
</clipPath>
</defs>
</svg>
