<svg
                    width="20"
                    height="17"
                    viewBox="0 0 20 17"
                    fill="none"
                    xmlns="http://www.w3.org/2000/svg"
                  >
                    <path
                      d="M6.08143 0.400024H19.0999C19.3386 0.400024 19.5675 0.494846 19.7363 0.663628C19.9051 0.832411 19.9999 1.06133 19.9999 1.30002V15.7C19.9999 15.9387 19.9051 16.1676 19.7363 16.3364C19.5675 16.5052 19.3386 16.6 19.0999 16.6H6.08143C5.93329 16.6 5.78744 16.5635 5.65682 16.4936C5.5262 16.4238 5.41484 16.3228 5.33263 16.1995L0.532926 8.99953C0.434251 8.85163 0.381592 8.67782 0.381592 8.50002C0.381592 8.32223 0.434251 8.14842 0.532926 8.00052L5.33263 0.800524C5.41484 0.6773 5.5262 0.576273 5.65682 0.506409C5.78744 0.436545 5.93329 0.400002 6.08143 0.400024ZM6.56293 2.20002L2.36353 8.50002L6.56293 14.8H18.1999V2.20002H6.56293ZM11.8999 7.22743L14.4451 4.68132L15.7186 5.95482L13.1725 8.50002L15.7186 11.0452L14.4451 12.3187L11.8999 9.77262L9.35473 12.3187L8.08123 11.0452L10.6273 8.50002L8.08123 5.95482L9.35473 4.68132L11.8999 7.22743Z"
                      fill="#0A0B14"
                    />
                  </svg>