<svg width="65" height="67" viewBox="0 0 65 67" fill="none" xmlns="http://www.w3.org/2000/svg">
<rect x="0.5" y="2" width="64" height="64" rx="32" fill="#F6F6FA"/>
<path d="M53.8845 24.0296L25.3971 16.3964C23.6682 15.9332 21.891 16.9592 21.4278 18.6881L16.0143 38.8916C15.551 40.6206 16.577 42.3977 18.306 42.861L46.7933 50.4941C48.5222 50.9574 50.2994 49.9314 50.7626 48.2024L56.1762 27.9989C56.6394 26.27 55.6134 24.4929 53.8845 24.0296Z" fill="#CDCED5" stroke="#868898" stroke-linecap="round" stroke-linejoin="round"/>
<path d="M50.986 19.136L22.4987 11.5029C20.7697 11.0396 18.9926 12.0656 18.5293 13.7946L13.1158 33.9981C12.6526 35.727 13.6786 37.5042 15.4075 37.9674L43.8949 45.6006C45.6238 46.0638 47.4009 45.0378 47.8642 43.3089L53.2777 23.1054C53.741 21.3764 52.715 19.5993 50.986 19.136Z" fill="white" stroke="#868898" stroke-linecap="round" stroke-linejoin="round"/>
<path d="M18.0259 15.6729L52.7742 24.9836" stroke="#868898" stroke-linecap="round" stroke-linejoin="round"/>
<path d="M21.5499 15.0104C21.9947 15.1296 22.452 14.8656 22.5712 14.4207C22.6904 13.9759 22.4264 13.5186 21.9815 13.3994C21.5367 13.2802 21.0794 13.5442 20.9602 13.9891C20.841 14.4339 21.105 14.8912 21.5499 15.0104Z" fill="#868898"/>
<path d="M24.4344 15.7838C24.8792 15.903 25.3365 15.639 25.4557 15.1942C25.5749 14.7493 25.3109 14.2921 24.866 14.1729C24.4212 14.0537 23.9639 14.3177 23.8447 14.7625C23.7255 15.2074 23.9895 15.6646 24.4344 15.7838Z" fill="#868898"/>
<path d="M27.3189 16.5563C27.7638 16.6755 28.221 16.4115 28.3402 15.9666C28.4594 15.5218 28.1954 15.0645 27.7506 14.9453C27.3057 14.8261 26.8484 15.0901 26.7292 15.535C26.61 15.9798 26.874 16.4371 27.3189 16.5563Z" fill="#868898"/>
<path d="M54.0372 44.5467L40.3606 40.8821C39.5006 40.6516 38.6167 41.162 38.3862 42.022L36.4996 49.0629C36.2692 49.9229 36.7795 50.8069 37.6395 51.0373L51.3162 54.7019C52.1761 54.9324 53.0601 54.422 53.2905 53.562L55.1771 46.5211C55.4076 45.6611 54.8972 44.7772 54.0372 44.5467Z" fill="white" stroke="#868898" stroke-linecap="round" stroke-linejoin="round"/>
<path d="M40.6228 45.4923C41.2456 45.6592 41.8858 45.2896 42.0527 44.6667C42.2196 44.0439 41.85 43.4037 41.2271 43.2368C40.6043 43.0699 39.9641 43.4395 39.7972 44.0623C39.6303 44.6852 39.9999 45.3254 40.6228 45.4923Z" fill="#E2E3E9"/>
<path d="M49.6327 45.9736L43.9292 44.4453L43.6235 45.5861L49.327 47.1144L49.6327 45.9736Z" fill="#E2E3E9"/>
<path d="M52.6357 46.6398L51.6883 46.386C51.404 46.3098 51.1118 46.4785 51.0357 46.7628L50.9371 47.1308C50.8609 47.4151 51.0296 47.7073 51.3139 47.7834L52.2613 48.0373C52.5455 48.1135 52.8377 47.9448 52.9139 47.6605L53.0125 47.2925C53.0887 47.0082 52.92 46.716 52.6357 46.6398Z" fill="#E2E3E9"/>
<path d="M39.5678 49.4308C40.1907 49.5977 40.8309 49.2281 40.9978 48.6052C41.1647 47.9823 40.7951 47.3421 40.1722 47.1752C39.5494 47.0083 38.9091 47.378 38.7422 48.0008C38.5754 48.6237 38.945 49.2639 39.5678 49.4308Z" fill="#E2E3E9"/>
<path d="M48.5778 49.9111L42.8743 48.3828L42.5686 49.5236L48.2721 51.0519L48.5778 49.9111Z" fill="#E2E3E9"/>
<path d="M51.5808 50.5783L50.6334 50.3244C50.3491 50.2483 50.0569 50.417 49.9807 50.7012L49.8821 51.0693C49.806 51.3535 49.9747 51.6457 50.2589 51.7219L51.2063 51.9758C51.4906 52.0519 51.7828 51.8832 51.859 51.599L51.9576 51.2309C52.0338 50.9467 51.8651 50.6545 51.5808 50.5783Z" fill="#E2E3E9"/>
<path d="M23.139 21.269L21.8545 20.9248L19.9926 27.8736L21.277 28.2177L23.139 21.269Z" fill="#E2E3E9"/>
<path d="M45.7801 27.3354L44.4956 26.9912L42.6337 33.94L43.9182 34.2842L45.7801 27.3354Z" fill="#E2E3E9"/>
<path d="M32.1954 23.6957L30.9109 23.3516L29.049 30.3003L30.3334 30.6445L32.1954 23.6957Z" fill="#E2E3E9"/>
<path d="M41.252 26.1225L39.9675 25.7783L37.0291 36.7448L38.3135 37.0889L41.252 26.1225Z" fill="#E2E3E9"/>
<path d="M27.667 22.4819L26.3826 22.1377L24.5207 29.0865L25.8051 29.4306L27.667 22.4819Z" fill="#E2E3E9"/>
<path d="M36.7237 24.9086L35.4392 24.5645L33.5773 31.5132L34.8618 31.8574L36.7237 24.9086Z" fill="#E2E3E9"/>
<path d="M22.3394 24.2534L21.0549 23.9092L18.5242 33.354L19.8087 33.6982L22.3394 24.2534Z" fill="#E2E3E9"/>
<path d="M44.9805 30.3198L43.696 29.9756L41.1653 39.4204L42.4498 39.7646L44.9805 30.3198Z" fill="#CDCED5"/>
<path d="M30.9537 28.3305L29.6692 27.9863L27.5807 35.7806L28.8652 36.1248L30.9537 28.3305Z" fill="#E2E3E9"/>
<path d="M39.0757 34.2436L37.7913 33.8994L36.637 38.2071L37.9215 38.5513L39.0757 34.2436Z" fill="#E2E3E9"/>
<path d="M25.9871 28.7534L24.7026 28.4092L23.0526 34.5671L24.3371 34.9113L25.9871 28.7534Z" fill="#CDCED5"/>
<path d="M35.0435 31.1801L33.759 30.8359L32.109 36.9939L33.3935 37.3381L35.0435 31.1801Z" fill="#CDCED5"/>
<path d="M21.6978 24.0811L25.3453 28.5813L30.3139 28.1512L34.4017 31.0079L38.4342 34.0715L44.3389 30.1477" stroke="#868898" stroke-linecap="round" stroke-linejoin="round"/>
<path d="M45.2086 29.3684L43.5437 29.3684C43.3572 29.3684 43.2407 29.5703 43.3339 29.7318L44.1664 31.1737C44.2596 31.3352 44.4927 31.3352 44.586 31.1737L45.4184 29.7318C45.5117 29.5703 45.3951 29.3684 45.2086 29.3684Z" fill="#868898"/>
<path d="M25.8654 36.5619L11.8475 32.8058C11.0581 32.5943 10.2467 33.0628 10.0352 33.8521L7.16935 44.5478C6.95784 45.3372 7.42629 46.1485 8.21567 46.3601L22.2335 50.1161C23.0229 50.3276 23.8343 49.8592 24.0458 49.0698L26.9117 38.3742C27.1232 37.5848 26.6548 36.7734 25.8654 36.5619Z" fill="#E2E3E9" stroke="#868898" stroke-linecap="round" stroke-linejoin="round"/>
<path d="M12.0549 37.0439L14.135 40.6419" stroke="#868898" stroke-linecap="round" stroke-linejoin="round"/>
<path d="M14.8941 37.8031L11.2961 39.8832" stroke="#868898" stroke-linecap="round" stroke-linejoin="round"/>
<path d="M20.7275 39.3633L22.8076 42.9612" stroke="#868898" stroke-linecap="round" stroke-linejoin="round"/>
<path d="M23.5669 40.1215L19.9689 42.2016" stroke="#868898" stroke-linecap="round" stroke-linejoin="round"/>
<path d="M12.2869 43.2758L19.6481 45.2436" stroke="#868898" stroke-linecap="round" stroke-linejoin="round"/>
<path d="M48.7761 1.46879C48.7761 1.46879 46.453 4.19413 49.1611 6.5185C46.4529 4.19409 44.1114 6.90352 44.1114 6.90352C44.1114 6.90352 46.4345 4.17819 43.7263 1.85377C46.4345 4.17819 48.7761 1.46879 48.7761 1.46879Z" fill="white" stroke="#868898" stroke-linecap="round" stroke-linejoin="round"/>
<path d="M23.2034 62.2926C23.2034 62.2926 19.6336 62.5771 19.9049 66.1356C19.6336 62.577 16.062 62.8371 16.062 62.8371C16.062 62.8371 19.6318 62.5527 19.3604 58.9941C19.6318 62.5527 23.2034 62.2926 23.2034 62.2926Z" fill="white" stroke="#868898" stroke-linecap="round" stroke-linejoin="round"/>
</svg>
