<svg width="63" height="66" viewBox="0 0 63 66" fill="none" xmlns="http://www.w3.org/2000/svg">
<rect y="2" width="63" height="63" rx="31.5" fill="#F6F6FA"/>
<path d="M45.8092 20.7324H21.6254C20.3631 20.7324 19.3398 21.7557 19.3398 23.018V51.77C19.3398 53.0323 20.3631 54.0555 21.6254 54.0555H45.8092C47.0715 54.0555 48.0948 53.0323 48.0948 51.77V23.018C48.0948 21.7557 47.0715 20.7324 45.8092 20.7324Z" fill="#CDCED5" stroke="#868898" stroke-linecap="round" stroke-linejoin="round"/>
<path d="M44.6065 20.1301V45.6641C44.6065 48.4326 42.3629 50.6762 39.5914 50.6762H18.7383C17.1435 50.6762 15.8516 49.3843 15.8516 47.7895V20.1301C15.8516 18.8122 16.9186 17.7422 18.2394 17.7422H42.2158C43.5366 17.7422 44.6065 18.8122 44.6065 20.1301Z" fill="white" stroke="#868898" stroke-linecap="round" stroke-linejoin="round"/>
<path d="M39.5914 50.6762H18.7383C17.1435 50.6762 15.8516 49.3842 15.8516 47.7895C15.8516 46.4023 16.8292 45.243 18.1327 44.9662L18.2971 44.9373L18.3144 44.9344L38.3369 40.8076C36.174 41.3642 34.5763 43.3281 34.5763 45.664C34.5763 48.4326 36.8229 50.6762 39.5914 50.6762Z" fill="#E2E3E9" stroke="#868898" stroke-linecap="round" stroke-linejoin="round"/>
<path d="M38.4388 40.7871L38.3437 40.8044L38.3379 40.8073" stroke="#868898" stroke-linecap="round" stroke-linejoin="round"/>
<path d="M36.3519 16.5867V19.1562C36.3519 19.5773 36.0116 19.9176 35.5906 19.9176H25.4537C25.0298 19.9176 24.6895 19.5773 24.6895 19.1562V16.5867C24.6895 16.1656 25.0298 15.8225 25.4537 15.8225H27.6454C27.6454 14.2334 28.9317 12.9443 30.5207 12.9443C32.1097 12.9443 33.3988 14.2334 33.3988 15.8225H35.5906C36.0117 15.8225 36.3519 16.1656 36.3519 16.5867Z" fill="#CDCED5" stroke="#868898" stroke-linecap="round" stroke-linejoin="round"/>
<path d="M14.4737 30.5382C17.1752 30.5382 19.3653 28.3481 19.3653 25.6465C19.3653 22.9449 17.1752 20.7549 14.4737 20.7549C11.7721 20.7549 9.58203 22.9449 9.58203 25.6465C9.58203 28.3481 11.7721 30.5382 14.4737 30.5382Z" fill="#E2E3E9" stroke="#868898" stroke-linecap="round" stroke-linejoin="round"/>
<path d="M13.7808 26.98C13.9284 27.1258 14.1148 27.2176 14.3392 27.2551V25.7674C14.1409 25.7185 13.9695 25.665 13.8256 25.607C13.6812 25.549 13.5615 25.48 13.4665 25.3996C13.371 25.3192 13.3006 25.2209 13.2558 25.1049C13.2106 24.9888 13.1882 24.8486 13.1882 24.6836C13.1882 24.515 13.2184 24.3606 13.2782 24.2203C13.3381 24.08 13.4194 23.9585 13.5222 23.8552C13.6255 23.7524 13.747 23.6711 13.8873 23.6112C14.0275 23.5514 14.1783 23.5158 14.3391 23.5043V23.1338H14.648V23.5103C14.9514 23.5477 15.1926 23.6602 15.3722 23.847C15.5518 24.0344 15.6793 24.2925 15.7542 24.6219H15.2767C15.2018 24.2514 14.9925 24.0343 14.648 23.9704V25.3516L14.9848 25.4416C15.0597 25.4604 15.1479 25.4932 15.2488 25.5399C15.3498 25.5865 15.4471 25.6513 15.5408 25.7336C15.6345 25.8158 15.714 25.9187 15.7793 26.0425C15.8446 26.1658 15.8775 26.3139 15.8775 26.4857C15.8775 26.6693 15.8469 26.832 15.7848 26.9741C15.7231 27.1167 15.6381 27.2391 15.5294 27.3419C15.4211 27.4452 15.2918 27.5265 15.1419 27.5864C14.9925 27.6462 14.8276 27.6837 14.648 27.6987V28.1588H14.3391V27.6987C13.9649 27.6613 13.6675 27.531 13.4463 27.3085C13.2257 27.0856 13.1005 26.7776 13.0703 26.3847H13.5478C13.5551 26.6355 13.6328 26.8338 13.7808 26.98ZM13.8818 24.1472C13.7561 24.2578 13.6936 24.4195 13.6936 24.6329C13.6936 24.7302 13.7096 24.8138 13.7415 24.8828C13.7731 24.9523 13.8178 25.0103 13.8763 25.0569C13.9339 25.104 14.0024 25.1442 14.081 25.1775C14.1596 25.2113 14.2455 25.2415 14.3392 25.2675V23.9539C14.1596 23.9727 14.007 24.0371 13.8818 24.1472ZM14.9372 27.1989C15.025 27.1692 15.1017 27.1248 15.1675 27.0668C15.2329 27.0088 15.2836 26.9361 15.3192 26.848C15.3544 26.7602 15.3722 26.6561 15.3722 26.5364C15.3722 26.4276 15.3535 26.3371 15.316 26.264C15.2785 26.1909 15.2283 26.1283 15.1648 26.0758C15.1008 26.0237 15.024 25.9798 14.9345 25.9442C14.8445 25.9086 14.749 25.8757 14.648 25.846V27.2551C14.7526 27.2478 14.849 27.229 14.9372 27.1989Z" fill="#868898"/>
<path d="M43.9639 21.4424C45.782 21.4424 47.2559 19.9686 47.2559 18.1504C47.2559 16.3323 45.782 14.8584 43.9639 14.8584C42.1458 14.8584 40.6719 16.3323 40.6719 18.1504C40.6719 19.9686 42.1458 21.4424 43.9639 21.4424Z" fill="#E2E3E9" stroke="#868898" stroke-linecap="round" stroke-linejoin="round"/>
<path d="M47.163 45.1971C50.5926 45.1971 53.3728 42.4168 53.3728 38.9872C53.3728 35.5576 50.5926 32.7773 47.163 32.7773C43.7334 32.7773 40.9531 35.5576 40.9531 38.9872C40.9531 42.4168 43.7334 45.1971 47.163 45.1971Z" fill="#CDCED5" stroke="#868898" stroke-linecap="round" stroke-linejoin="round"/>
<path d="M45.8653 38.8892C45.7744 38.7345 45.6985 38.5738 45.6375 38.4052C45.576 38.2373 45.5455 38.0444 45.5455 37.8265C45.5455 37.6087 45.5871 37.4146 45.6713 37.2439C45.7556 37.0737 45.8687 36.9296 46.0117 36.8115C46.1548 36.6934 46.3194 36.6025 46.5056 36.5393C46.6919 36.4755 46.8893 36.4434 47.0983 36.4434C47.6027 36.4434 47.9985 36.5903 48.2873 36.883C48.5756 37.1757 48.7153 37.6153 48.7059 38.2012H48.1271C48.1177 37.8016 48.0318 37.4939 47.8683 37.2782C47.7047 37.0626 47.4597 36.9545 47.1326 36.9545C46.9963 36.9545 46.8693 36.9772 46.7512 37.0226C46.6332 37.0681 46.5295 37.1307 46.4414 37.21C46.3527 37.2893 46.2834 37.3835 46.2335 37.4928C46.1836 37.6014 46.1587 37.72 46.1587 37.847C46.1587 37.9556 46.1697 38.0571 46.1925 38.1502C46.2152 38.2434 46.2435 38.3304 46.2778 38.4124C46.3117 38.4939 46.3494 38.5737 46.3898 38.6508C46.4308 38.7279 46.4719 38.8071 46.5129 38.8892H47.5956V39.1957H46.6626C46.6986 39.2684 46.7307 39.3476 46.7579 39.4341C46.7851 39.5206 46.7989 39.611 46.7989 39.7063C46.7989 39.861 46.7762 39.9985 46.7307 40.1188C46.6853 40.2391 46.626 40.3505 46.5533 40.4525C46.4807 40.5545 46.397 40.6487 46.3017 40.7352C46.2063 40.8217 46.1082 40.9054 46.0084 40.9875L46.0223 41.0008C46.1403 40.9509 46.2551 40.9054 46.366 40.8644C46.4774 40.8239 46.601 40.8034 46.7374 40.8034C46.8693 40.8034 46.9874 40.8145 47.0916 40.8367C47.1958 40.8583 47.2934 40.8805 47.3843 40.9026C47.4753 40.9287 47.5673 40.9553 47.6604 40.9819C47.7535 41.0079 47.8522 41.0213 47.957 41.0213C48.0657 41.0213 48.1737 40.9952 48.2802 40.9431C48.3872 40.891 48.4814 40.8328 48.5629 40.769L48.8562 41.2214C48.7198 41.3411 48.5641 41.4232 48.3894 41.4664C48.2143 41.5102 48.0385 41.5324 47.8617 41.5324C47.748 41.5324 47.6366 41.5185 47.528 41.4914C47.4187 41.4642 47.3051 41.4343 47.187 41.4027C47.0734 41.3666 46.9586 41.3333 46.8433 41.304C46.7274 41.2746 46.6033 41.2596 46.4719 41.2596C46.34 41.2596 46.2197 41.2812 46.111 41.3245C46.0018 41.3677 45.8948 41.4232 45.7906 41.4913L45.4707 41.0484C45.5661 40.9852 45.6586 40.9098 45.7496 40.8239C45.8405 40.7374 45.9209 40.6421 45.9918 40.5378C46.0617 40.4331 46.1177 40.3222 46.1587 40.2036C46.1991 40.086 46.2197 39.9608 46.2197 39.8294C46.2197 39.7246 46.2014 39.6159 46.1653 39.5023C46.1287 39.3887 46.0905 39.2866 46.0494 39.1957H45.4707V38.8892H45.8653Z" fill="white"/>
<path d="M22.7012 27.3691L26.559 31.2225" stroke="#868898" stroke-linecap="round" stroke-linejoin="round"/>
<path d="M26.5584 27.3662L22.7051 31.224" stroke="#868898" stroke-linecap="round" stroke-linejoin="round"/>
<path d="M34.4805 27.3623L38.3383 31.2156" stroke="#868898" stroke-linecap="round" stroke-linejoin="round"/>
<path d="M38.3358 27.3594L34.4824 31.2172" stroke="#868898" stroke-linecap="round" stroke-linejoin="round"/>
<path d="M25.1113 35.1865L35.1082 35.1807" stroke="#868898" stroke-linecap="round" stroke-linejoin="round"/>
<path d="M47.6427 1.47758C47.6427 1.47758 45.3559 4.16034 48.0217 6.44839C45.3559 4.16029 43.0509 6.82739 43.0509 6.82739C43.0509 6.82739 45.3377 4.14464 42.6719 1.85654C45.3377 4.14464 47.6427 1.47758 47.6427 1.47758Z" fill="white" stroke="#868898" stroke-linecap="round" stroke-linejoin="round"/>
<path d="M22.4692 61.3505C22.4692 61.3505 18.9552 61.6305 19.2223 65.1334C18.9552 61.6304 15.4395 61.8865 15.4395 61.8865C15.4395 61.8865 18.9534 61.6065 18.6863 58.1035C18.9534 61.6065 22.4692 61.3505 22.4692 61.3505Z" fill="white" stroke="#868898" stroke-linecap="round" stroke-linejoin="round"/>
</svg>
