<svg width="63" height="63" viewBox="0 0 63 63" fill="none" xmlns="http://www.w3.org/2000/svg">
<rect width="63" height="63" rx="31.5" fill="#F6F6FA"/>
<rect x="19.8242" y="16.9238" width="27.9119" height="32.7594" rx="5.41989" fill="#CDCED5" stroke="#868898" stroke-linecap="round" stroke-linejoin="round"/>
<rect x="15.2646" y="13.3164" width="27.9119" height="32.7594" rx="5.41989" fill="white" stroke="#868898" stroke-linecap="round" stroke-linejoin="round"/>
<path d="M22.0537 27.8945L25.5804 31.4432" stroke="#868898" stroke-linecap="round" stroke-linejoin="round"/>
<path d="M25.5917 27.9062L22.043 31.433" stroke="#868898" stroke-linecap="round" stroke-linejoin="round"/>
<path d="M32.8604 27.9287L36.3871 31.4773" stroke="#868898" stroke-linecap="round" stroke-linejoin="round"/>
<path d="M36.3983 27.9395L32.8496 31.4662" stroke="#868898" stroke-linecap="round" stroke-linejoin="round"/>
<path d="M24.2383 35.0762L33.4109 35.1045" stroke="#868898" stroke-linecap="round" stroke-linejoin="round"/>
<path d="M21.9783 21.4551C21.9641 21.4571 21.9497 21.4541 21.9374 21.4468L19.8557 19.9412C19.8366 19.9284 19.8117 19.9284 19.7926 19.9412L17.7109 21.4468C17.6808 21.4642 17.6422 21.4539 17.6247 21.4238C17.6188 21.4135 17.6159 21.4018 17.6162 21.39V16.4438C17.6162 16.0952 17.8987 15.8125 18.2471 15.8125H21.4011C21.7495 15.8125 22.032 16.0952 22.032 16.4438V21.3837C22.0368 21.4182 22.0129 21.4501 21.9783 21.4551Z" fill="#CDCED5" stroke="#868898" stroke-linecap="round" stroke-linejoin="round"/>
<path d="M15.0224 47.4131C17.6744 47.4131 19.8242 45.2632 19.8242 42.6113C19.8242 39.9594 17.6744 37.8096 15.0224 37.8096C12.3705 37.8096 10.2207 39.9594 10.2207 42.6113C10.2207 45.2632 12.3705 47.4131 15.0224 47.4131Z" fill="#E2E3E9" stroke="#868898" stroke-linecap="round" stroke-linejoin="round"/>
<path fill-rule="evenodd" clip-rule="evenodd" d="M16.7703 42.9519C16.6363 43.1599 16.4579 43.3647 16.2364 43.5695C15.8834 43.88 15.5067 44.1621 15.1093 44.412L15.023 44.4661L14.9367 44.4133C14.5361 44.1666 14.1573 43.8838 13.8031 43.5657C13.4128 43.1947 13.1429 42.8024 13.0264 42.396C13.4469 42.0817 14.0118 41.9536 14.5187 42.0985C14.8587 42.1957 15.1582 42.3967 15.4603 42.5802C15.763 42.7644 16.085 42.9377 16.4373 42.9712C16.5475 42.9815 16.6608 42.9751 16.7703 42.9519Z" fill="#868898" stroke="#868898" stroke-linecap="round" stroke-linejoin="round"/>
<path fill-rule="evenodd" clip-rule="evenodd" d="M17.0839 41.9429C17.0839 42.299 16.9796 42.6294 16.7709 42.9515C16.6614 42.9747 16.5481 42.9811 16.4379 42.9708C16.0856 42.9373 15.7636 42.7641 15.4609 42.5798C15.1588 42.3963 14.827 42.4929 14.4869 42.3956C13.98 42.2507 13.4475 42.0814 13.027 42.3956C12.9838 42.2462 12.9619 42.0949 12.9619 41.9422C12.9632 41.3967 13.3303 40.9214 13.8533 40.7913C14.2893 40.6824 14.7402 40.8377 15.0229 41.1732C15.2419 40.9117 15.5659 40.7559 15.913 40.7559H15.9149C16.2247 40.7559 16.5217 40.8808 16.7406 41.103C16.9609 41.3259 17.0839 41.6279 17.0839 41.9429Z" fill="#F6F6FA" stroke="#868898" stroke-linecap="round" stroke-linejoin="round"/>
<path d="M31.5003 19.6129C34.7327 19.6129 37.3531 16.9925 37.3531 13.76C37.3531 10.5276 34.7327 7.90723 31.5003 7.90723C28.2679 7.90723 25.6475 10.5276 25.6475 13.76C25.6475 16.9925 28.2679 19.6129 31.5003 19.6129Z" fill="#CDCED5" stroke="#868898" stroke-linecap="round" stroke-linejoin="round"/>
<path d="M33.6464 14.2376C33.6464 15.4557 32.6853 16.4432 31.4999 16.4432C30.3146 16.4432 29.3535 15.4557 29.3535 14.2376C29.3535 13.6634 29.5681 13.1394 29.9189 12.7471L30.0029 12.6582L31.4999 11.0771L33.0076 12.6691L33.0818 12.7471C33.4318 13.1394 33.6464 13.6634 33.6464 14.2376Z" fill="#868898"/>
<path d="M45.5417 30.8812C48.0624 30.8812 50.1058 28.8378 50.1058 26.3171C50.1058 23.7964 48.0624 21.7529 45.5417 21.7529C43.021 21.7529 40.9775 23.7964 40.9775 26.3171C40.9775 28.8378 43.021 30.8812 45.5417 30.8812Z" fill="white" stroke="#868898" stroke-linecap="round" stroke-linejoin="round"/>
<path d="M45.5413 27.0231C46.2626 27.0231 46.8473 26.4384 46.8473 25.7171C46.8473 24.9958 46.2626 24.4111 45.5413 24.4111C44.8201 24.4111 44.2354 24.9958 44.2354 25.7171C44.2354 26.4384 44.8201 27.0231 45.5413 27.0231Z" fill="#868898"/>
<mask id="mask0_12892_62638" style="mask-type:alpha" maskUnits="userSpaceOnUse" x="40" y="21" width="11" height="11">
<path d="M45.5417 30.8812C48.0624 30.8812 50.1058 28.8378 50.1058 26.3171C50.1058 23.7964 48.0624 21.7529 45.5417 21.7529C43.021 21.7529 40.9775 23.7964 40.9775 26.3171C40.9775 28.8378 43.021 30.8812 45.5417 30.8812Z" fill="#E3E4E6" stroke="#8A8E92" stroke-linecap="round" stroke-linejoin="round"/>
</mask>
<g mask="url(#mask0_12892_62638)">
<path d="M45.5413 33.2798C47.2689 33.2798 48.6695 31.8793 48.6695 30.1516C48.6695 28.424 47.2689 27.0234 45.5413 27.0234C43.8136 27.0234 42.4131 28.424 42.4131 30.1516C42.4131 31.8793 43.8136 33.2798 45.5413 33.2798Z" fill="#868898"/>
</g>
<path d="M10.8855 18.1776C10.8855 18.1776 8.32835 17.4158 7.56048 19.9617C8.32832 17.4158 5.77637 16.6367 5.77637 16.6367C5.77637 16.6367 8.33359 17.3984 9.10142 14.8525C8.33359 17.3984 10.8855 18.1776 10.8855 18.1776Z" fill="white" stroke="#868898" stroke-linecap="round" stroke-linejoin="round"/>
<path d="M57.7238 40.9668C57.7238 40.9668 55.5399 43.5289 58.0857 45.714C55.5398 43.5289 53.3386 46.076 53.3386 46.076C53.3386 46.076 55.5225 43.5139 52.9766 41.3288C55.5225 43.5139 57.7238 40.9668 57.7238 40.9668Z" fill="white" stroke="#868898" stroke-linecap="round" stroke-linejoin="round"/>
</svg>
