<svg width="48" height="48" viewBox="0 0 48 48" fill="none" xmlns="http://www.w3.org/2000/svg">
<rect width="48" height="48" rx="24" fill="#FEF4EB"/>
<path d="M28.5004 24.9V25.8C28.5004 28.293 27.9028 30.7005 26.7769 32.8614L26.5726 33.2394L25.0003 32.3628C26.0443 30.4908 26.6293 28.3938 26.6941 26.2104L26.7004 25.8V24.9H28.5004ZM23.1004 22.2H24.9004V25.8L24.8959 26.1411C24.8278 28.605 23.9798 30.9838 22.474 32.9352L22.2661 33.1962L20.8711 32.0586C22.2448 30.3809 23.0265 28.2967 23.095 26.1294L23.1004 25.8V22.2ZM24.0004 18.6C25.1938 18.6 26.3384 19.0741 27.1823 19.918C28.0262 20.7619 28.5004 21.9065 28.5004 23.1H26.7004C26.7004 22.3839 26.4159 21.6972 25.9095 21.1908C25.4032 20.6845 24.7164 20.4 24.0004 20.4C23.2843 20.4 22.5975 20.6845 22.0912 21.1908C21.5848 21.6972 21.3004 22.3839 21.3004 23.1V25.8C21.3004 27.8115 20.5624 29.7096 19.2565 31.1793L19.0657 31.3863L17.7625 30.1443C18.8154 29.0427 19.4313 27.5953 19.495 26.0727L19.5004 25.8V23.1C19.5004 21.9065 19.9745 20.7619 20.8184 19.918C21.6623 19.0741 22.8069 18.6 24.0004 18.6ZM24.0004 15C26.1486 15 28.2089 15.8534 29.7279 17.3724C31.247 18.8915 32.1004 20.9518 32.1004 23.1V25.8C32.1004 27.3282 31.9186 28.833 31.5631 30.291L31.438 30.7761L29.701 30.3027C30.0538 29.0094 30.2527 27.6729 30.2932 26.3112L30.3004 25.8V23.1C30.3004 21.9308 29.975 20.7846 29.3606 19.7898C28.7463 18.795 27.8672 17.9908 26.8218 17.4671C25.7764 16.9435 24.6059 16.7211 23.4413 16.8249C22.2767 16.9286 21.1639 17.3544 20.2276 18.0546L18.9451 16.7712C20.3792 15.6222 22.1627 14.9973 24.0004 15ZM17.6716 18.0447L18.955 19.3272C18.1831 20.3561 17.7463 21.5975 17.704 22.8831L17.7004 23.1L17.704 24.9C17.704 25.908 17.4664 26.8827 17.0182 27.7593L16.8778 28.0203L15.3145 27.1275C15.6565 26.529 15.8563 25.8612 15.8959 25.1628L15.904 24.9V23.1C15.8986 21.2625 16.5224 19.4785 17.6716 18.0447Z" fill="#F28B2C"/>
</svg>
