<svg width="339" height="298" viewBox="0 0 339 298" fill="none" xmlns="http://www.w3.org/2000/svg">
<g clip-path="url(#clip0_12023_24418)">
<rect x="60" y="4" width="225" height="381" rx="19" fill="#F6F6FA" stroke="#E2E3E9" stroke-width="6"/>
<g filter="url(#filter0_d_12023_24418)">
<rect x="153.892" y="132" width="163" height="48" rx="16" transform="rotate(4.65105 153.892 132)" fill="white"/>
<rect x="154.35" y="132.539" width="162" height="47" rx="15.5" transform="rotate(4.65105 154.35 132.539)" stroke="#CDCED5"/>
<path d="M177.186 164.998L169.041 164.335L170.108 151.22L178.253 151.883L178.081 154L172.232 153.524L171.957 156.897L177.196 157.323L177.031 159.35L171.793 158.924L171.509 162.405L177.358 162.881L177.186 164.998ZM180.698 165.283L178.204 165.08L181.608 160.987L178.925 156.218L181.473 156.425L183.183 159.598L185.312 156.737L187.77 156.937L184.391 161.177L186.959 165.793L184.448 165.588L182.802 162.511L180.698 165.283ZM187.595 161.366C187.818 158.621 189.788 156.83 192.407 157.044C194.829 157.241 196.37 158.72 196.43 160.874L194.241 160.696C194.071 159.671 193.378 159.091 192.338 159.006C190.938 158.893 189.919 159.875 189.784 161.544C189.648 163.212 190.424 164.323 191.824 164.437C192.918 164.526 193.733 164.05 194.045 163.1L196.252 163.28C195.815 165.321 193.977 166.598 191.663 166.41C188.972 166.191 187.366 164.182 187.595 161.366ZM199.608 166.822L197.42 166.644L198.506 153.296L200.712 153.475L200.254 159.109C200.88 158.293 201.966 157.821 203.24 157.925C205.429 158.103 206.464 159.578 206.277 161.874L205.834 167.328L203.645 167.15L204.046 162.216C204.168 160.727 203.49 159.95 202.378 159.859C200.997 159.747 200.11 160.65 200.002 161.978L199.608 166.822ZM210.405 167.935C208.521 167.782 207.462 166.594 207.598 164.925C207.731 163.293 208.998 162.366 211.11 162.376L213.782 162.394L213.798 162.197C213.895 160.995 213.217 160.452 212.105 160.362C210.813 160.257 210.052 160.736 209.976 161.669L208.11 161.518C208.266 159.598 209.947 158.471 212.351 158.666C214.737 158.86 216.103 160.272 215.903 162.73L215.466 168.112L213.546 167.956L213.491 166.633C213.04 167.517 211.787 168.047 210.405 167.935ZM211.257 166.343C212.603 166.452 213.53 165.715 213.64 164.351L213.678 163.885L211.819 163.878C210.445 163.893 209.888 164.299 209.83 165.017C209.764 165.824 210.27 166.262 211.257 166.343ZM219.607 168.449L217.418 168.271L218.139 159.408L220.167 159.573L220.253 160.736C220.882 159.884 222.001 159.451 223.203 159.549C225.427 159.73 226.463 161.205 226.276 163.501L225.833 168.955L223.644 168.777L224.045 163.843C224.166 162.354 223.489 161.577 222.359 161.485C221.013 161.375 220.112 162.241 219.995 163.676L219.607 168.449ZM227.66 164.445C227.87 161.861 229.714 160.061 232.244 160.266C233.572 160.374 234.567 161.015 235.01 162.008L235.235 160.799L237.262 160.964L236.577 169.378C236.337 172.338 234.41 174.041 231.54 173.808C228.992 173.601 227.37 172.006 227.294 169.616L229.482 169.794C229.532 170.954 230.356 171.707 231.702 171.817C233.209 171.939 234.255 171.067 234.374 169.596L234.494 168.125C233.871 168.905 232.734 169.336 231.46 169.232C228.949 169.028 227.451 167.01 227.66 164.445ZM229.871 164.57C229.75 166.059 230.61 167.249 232.046 167.366C233.553 167.488 234.572 166.506 234.697 164.963C234.82 163.456 233.989 162.341 232.465 162.217C231.011 162.099 229.989 163.117 229.871 164.57ZM242.555 170.55C239.917 170.336 238.226 168.266 238.449 165.521C238.675 162.74 240.643 160.968 243.245 161.179C245.9 161.395 247.442 163.309 247.217 166.072L247.163 166.735L240.488 166.21C240.522 167.784 241.283 168.641 242.736 168.759C243.938 168.857 244.766 168.455 245.086 167.632L247.113 167.797C246.579 169.704 244.869 170.739 242.555 170.55ZM243.117 162.975C241.825 162.87 240.979 163.505 240.655 164.815L245.105 165.177C245.204 163.957 244.426 163.082 243.117 162.975ZM252.878 162.234L254.152 162.338L254.239 161.261C254.435 158.857 255.791 157.956 257.71 158.112C258.051 158.14 258.462 158.192 258.833 158.294L258.681 160.16L257.91 160.097C256.798 160.007 256.482 160.559 256.41 161.438L256.323 162.514L258.44 162.687L258.291 164.517L256.174 164.344L255.602 171.377L253.431 171.2L254.003 164.168L252.729 164.064L252.878 162.234ZM265.649 163.273L267.838 163.451L267.117 172.314L265.09 172.149L265.025 170.952C264.418 171.751 263.223 172.232 262.039 172.136C259.994 171.969 258.904 170.49 259.081 168.319L259.532 162.775L261.72 162.953L261.332 167.726C261.195 169.412 261.803 170.148 263.023 170.247C264.405 170.36 265.134 169.606 265.271 167.92L265.649 163.273ZM271.369 172.66L269.181 172.482L269.902 163.619L271.929 163.784L272.015 164.947C272.644 164.095 273.763 163.662 274.965 163.76C277.189 163.941 278.225 165.416 278.038 167.712L277.595 173.166L275.406 172.988L275.807 168.055C275.928 166.565 275.251 165.788 274.121 165.696C272.775 165.587 271.874 166.452 271.758 167.888L271.369 172.66ZM283.171 173.855C280.605 173.646 279.162 171.632 279.385 168.887C279.61 166.125 281.385 164.282 284.058 164.5C285.296 164.601 286.348 165.21 286.833 166.134L287.29 160.519L289.461 160.695L288.375 174.043L286.365 173.88L286.334 172.487C285.713 173.466 284.516 173.964 283.171 173.855ZM283.819 171.885C285.344 172.009 286.419 170.995 286.549 169.398C286.679 167.801 285.783 166.609 284.258 166.485C282.733 166.361 281.708 167.415 281.58 168.994C281.451 170.572 282.294 171.761 283.819 171.885ZM289.996 171.466L292.077 171.636C292.032 172.408 292.567 172.94 293.571 173.021C294.594 173.104 295.184 172.737 295.236 172.091C295.273 171.643 295.066 171.301 294.291 171.057L292.725 170.551C291.157 170.062 290.447 169.246 290.562 167.828C290.704 166.088 292.26 165.167 294.305 165.333C296.296 165.495 297.549 166.753 297.426 168.477L295.345 168.308C295.389 167.553 294.926 167.027 294.083 166.959C293.221 166.889 292.687 167.243 292.633 167.906C292.592 168.409 292.96 168.764 293.699 169.004L295.265 169.511C296.727 169.973 297.425 170.716 297.314 172.08C297.168 173.874 295.553 174.862 293.364 174.684C291.157 174.504 289.854 173.206 289.996 171.466Z" fill="#868898"/>
</g>
<g filter="url(#filter1_d_12023_24418)">
<rect x="22" y="92.855" width="186" height="48" rx="16" transform="rotate(-11.1145 22 92.855)" fill="white"/>
<rect x="22.587" y="93.2492" width="185" height="47" rx="15.5" transform="rotate(-11.1145 22.587 93.2492)" stroke="#CDCED5"/>
<path d="M51.6179 113.144L46.8137 114.088L47.8512 119.369L45.5904 119.813L43.0539 106.902L51.0373 105.334L51.4468 107.418L45.7242 108.542L46.4147 112.057L51.2188 111.113L51.6179 113.144ZM58.7676 108.162L60.9224 107.739L62.6365 116.464L60.6407 116.856L60.2527 115.722C59.8859 116.656 58.8666 117.443 57.7008 117.672C55.6873 118.068 54.2368 116.941 53.8169 114.803L52.7447 109.346L54.8995 108.922L55.8225 113.621C56.1487 115.281 56.9341 115.824 58.1351 115.588C59.4951 115.32 59.9925 114.397 59.6663 112.737L58.7676 108.162ZM66.8227 115.642L64.6678 116.065L62.9537 107.34L64.9496 106.948L65.3483 108.044C65.7223 107.053 66.6814 106.333 67.8648 106.1C70.055 105.67 71.4525 106.808 71.8967 109.069L72.9515 114.438L70.7967 114.861L69.8425 110.004C69.5545 108.538 68.6915 107.974 67.5788 108.193C66.2541 108.453 65.6221 109.531 65.8997 110.944L66.8227 115.642ZM78.5049 113.585C75.9792 114.082 74.0429 112.536 73.512 109.834C72.9777 107.114 74.1856 104.858 76.8173 104.341C78.036 104.102 79.214 104.402 79.9316 105.16L78.8455 99.6321L80.9827 99.2122L83.5643 112.353L81.5861 112.742L81.1776 111.409C80.8455 112.52 79.8296 113.325 78.5049 113.585ZM78.5932 111.514C80.0945 111.219 80.8543 109.95 80.5455 108.378C80.2366 106.806 79.0501 105.902 77.5488 106.197C76.0475 106.492 75.3476 107.785 75.653 109.34C75.9583 110.894 77.0919 111.808 78.5932 111.514ZM90.217 115.247L89.863 113.445L91.1524 113.192C92.0002 113.025 92.4919 112.727 92.6616 111.63L92.7804 110.928L87.4787 102.522L89.7571 102.074L93.2494 107.992L94.367 101.169L96.5925 100.732L94.4139 112.239C94.0797 113.993 93.2931 114.844 91.8624 115.125C91.2619 115.243 90.7181 115.277 90.217 115.247ZM97.5668 105.053C97.0324 102.333 98.6251 100.075 101.327 99.5446C104.03 99.0137 106.358 100.501 106.893 103.221C107.427 105.941 105.834 108.198 103.132 108.729C100.429 109.26 98.1011 107.773 97.5668 105.053ZM99.7216 104.63C100.034 106.219 101.27 107.095 102.754 106.804C104.237 106.512 105.05 105.234 104.738 103.644C104.425 102.054 103.189 101.178 101.706 101.47C100.222 101.761 99.4093 103.04 99.7216 104.63ZM113.263 97.4567L115.417 97.0334L117.131 105.759L115.136 106.151L114.748 105.016C114.381 105.95 113.362 106.738 112.196 106.967C110.182 107.362 108.732 106.235 108.312 104.098L107.24 98.6399L109.395 98.2166L110.317 102.915C110.644 104.575 111.429 105.118 112.63 104.882C113.99 104.615 114.487 103.692 114.161 102.031L113.263 97.4567ZM122.917 95.5233L123.309 97.5192L122.514 97.6753C120.96 97.9807 120.152 99.0017 120.485 100.697L121.318 104.936L119.163 105.36L117.452 96.652L119.483 96.2529L119.857 97.5004C120.058 96.562 120.773 95.8161 121.939 95.5871C122.239 95.5281 122.547 95.5044 122.917 95.5233ZM133.11 102.858C131.256 103.222 129.914 102.367 129.591 100.724C129.275 99.1171 130.243 97.8813 132.278 97.3164L134.854 96.6086L134.816 96.4143C134.584 95.2309 133.783 94.8928 132.688 95.108C131.417 95.3578 130.814 96.0265 130.995 96.9449L129.158 97.3058C128.786 95.4159 130.098 93.8742 132.465 93.4092C134.814 92.9477 136.512 93.9349 136.987 96.3546L138.028 101.653L136.138 102.025L135.726 100.767C135.532 101.74 134.47 102.591 133.11 102.858ZM133.497 101.094C134.822 100.834 135.514 99.8727 135.25 98.5303L135.16 98.0711L133.368 98.5698C132.05 98.9571 131.625 99.4993 131.764 100.206C131.92 101.001 132.526 101.285 133.497 101.094ZM138.578 96.996C138.047 94.2937 139.456 92.0357 142.035 91.5291C144.419 91.0606 146.305 92.0661 146.947 94.1228L144.792 94.5461C144.351 93.6056 143.526 93.2357 142.502 93.4369C141.124 93.7076 140.41 94.9301 140.733 96.5727C141.056 98.2153 142.105 99.0732 143.482 98.8025C144.56 98.5908 145.215 97.9118 145.257 96.9129L147.43 96.4861C147.564 98.5693 146.142 100.298 143.864 100.745C141.215 101.266 139.123 99.769 138.578 96.996ZM148.095 95.1264C147.564 92.4241 148.973 90.1661 151.552 89.6595C153.936 89.1911 155.821 90.1965 156.464 92.2532L154.309 92.6766C153.867 91.736 153.043 91.3661 152.018 91.5673C150.64 91.838 149.927 93.0605 150.249 94.7031C150.572 96.3457 151.621 97.2036 152.999 96.9329C154.076 96.7213 154.732 96.0422 154.774 95.0433L156.946 94.6165C157.08 96.6998 155.659 98.4282 153.381 98.8758C150.731 99.3963 148.639 97.8994 148.095 95.1264ZM157.611 93.2569C157.077 90.5369 158.67 88.2795 161.372 87.7486C164.074 87.2177 166.403 88.7048 166.937 91.4248C167.471 94.1448 165.879 96.4022 163.176 96.933C160.474 97.4639 158.146 95.9769 157.611 93.2569ZM159.766 92.8335C160.078 94.4232 161.314 95.2993 162.798 95.0078C164.282 94.7164 165.094 93.4377 164.782 91.8481C164.47 90.2585 163.234 89.3823 161.75 89.6738C160.266 89.9653 159.454 91.2439 159.766 92.8335ZM173.307 85.6607L175.462 85.2374L177.176 93.9626L175.18 94.3547L174.792 93.2202C174.425 94.1544 173.406 94.9417 172.24 95.1707C170.227 95.5663 168.776 94.4388 168.356 92.3016L167.284 86.8439L169.439 86.4206L170.362 91.1188C170.688 92.7791 171.473 93.3219 172.674 93.0859C174.034 92.8187 174.532 91.8955 174.206 90.2353L173.307 85.6607ZM181.362 93.1402L179.207 93.5636L177.493 84.8383L179.489 84.4462L179.888 85.5419C180.262 84.5512 181.221 83.8308 182.404 83.5984C184.594 83.1681 185.992 84.306 186.436 86.5668L187.491 91.9362L185.336 92.3595L184.382 87.5024C184.094 86.0364 183.231 85.4721 182.118 85.6907C180.793 85.951 180.161 87.029 180.439 88.442L181.362 93.1402ZM192.381 90.9755L190.226 91.3988L188.866 84.4752L187.188 84.8048L186.834 83.0032L188.512 82.6736L187.978 79.9536L190.133 79.5303L190.667 82.2503L192.362 81.9172L192.716 83.7187L191.021 84.0518L192.381 90.9755Z" fill="#868898"/>
</g>
<g filter="url(#filter2_d_12023_24418)">
<rect x="63" y="230.041" width="163" height="48" rx="16" transform="rotate(-12.4139 63 230.041)" fill="white"/>
<rect x="63.5958" y="230.421" width="162" height="47" rx="15.5" transform="rotate(-12.4139 63.5958 230.421)" stroke="#CDCED5"/>
<path d="M89.5995 255.928L82.9387 243.921L85.2767 243.406L88.8095 249.743C89.1576 250.403 89.5097 251.082 89.9507 252.164C89.9101 250.975 89.9564 250.264 90.0225 249.476L90.5504 242.245L93.0291 241.7L96.5092 248.048C96.8788 248.722 97.2347 249.418 97.6855 250.462C97.6685 249.212 97.6934 248.488 97.7436 247.795L98.3204 240.535L100.606 240.032L99.5317 253.741L97.3519 254.221L92.551 245.473L91.8145 255.44L89.5995 255.928ZM103.393 241.962C102.654 242.124 101.946 241.672 101.788 240.951C101.629 240.231 102.085 239.54 102.824 239.378C103.527 239.223 104.231 239.658 104.39 240.379C104.548 241.099 104.096 241.807 103.393 241.962ZM104.615 252.622L102.703 243.938L104.848 243.466L106.76 252.15L104.615 252.622ZM111.735 251.055L109.591 251.527L108.074 244.636L106.404 245.004L106.009 243.211L107.679 242.843L107.083 240.136L109.228 239.664L109.824 242.371L111.511 242L111.906 243.793L110.218 244.164L111.735 251.055ZM116.707 249.961L114.563 250.433L111.684 237.354L113.846 236.878L115.061 242.398C115.42 241.434 116.32 240.665 117.568 240.39C119.713 239.918 121.136 241.024 121.631 243.274L122.807 248.618L120.663 249.09L119.599 244.256C119.277 242.797 118.402 242.252 117.312 242.492C115.958 242.79 115.376 243.913 115.663 245.214L116.707 249.961ZM128.34 247.64C125.826 248.193 123.855 246.692 123.263 244.002C122.667 241.295 123.824 239.013 126.443 238.436C127.656 238.169 128.841 238.443 129.575 239.184L128.364 233.682L130.491 233.214L133.37 246.293L131.401 246.726L130.963 245.404C130.656 246.522 129.658 247.349 128.34 247.64ZM128.381 245.566C129.876 245.237 130.606 243.952 130.262 242.388C129.918 240.823 128.711 239.946 127.217 240.275C125.722 240.604 125.052 241.913 125.393 243.46C125.733 245.007 126.887 245.895 128.381 245.566ZM138.942 235.925L139.379 237.911L138.588 238.085C137.041 238.426 136.256 239.465 136.628 241.152L137.556 245.371L135.412 245.843L133.504 237.177L135.526 236.732L135.927 237.971C136.107 237.028 136.805 236.266 137.966 236.011C138.265 235.945 138.571 235.914 138.942 235.925ZM144.411 244.102C142.565 244.509 141.204 243.684 140.844 242.049C140.492 240.449 141.431 239.192 143.453 238.581L146.013 237.815L145.97 237.622C145.711 236.444 144.903 236.124 143.813 236.364C142.547 236.642 141.96 237.325 142.162 238.239L140.333 238.641C139.919 236.76 141.195 235.189 143.551 234.671C145.889 234.156 147.609 235.104 148.139 237.513L149.3 242.786L147.419 243.2L146.978 241.952C146.807 242.93 145.764 243.804 144.411 244.102ZM144.758 242.33C146.076 242.04 146.746 241.063 146.452 239.727L146.351 239.27L144.572 239.809C143.263 240.226 142.85 240.778 143.004 241.481C143.179 242.272 143.791 242.543 144.758 242.33ZM152.872 242L148.148 233.935L150.381 233.444L152.344 236.919C152.688 237.562 153.03 238.279 153.366 239.053C153.339 238.174 153.377 237.595 153.469 236.671L153.844 232.681L156.024 232.202L158.004 235.673C158.187 236.001 158.825 237.225 159.058 237.782C159.056 237.1 159.108 236.001 159.147 235.421L159.487 231.439L161.754 230.94L160.66 240.286L158.656 240.727L156.632 237.228C156.029 236.163 155.654 235.379 155.487 234.955C155.488 235.379 155.465 236.029 155.339 237.55L154.964 241.54L152.872 242ZM166.543 229.886L167.791 229.611L167.559 228.557C167.04 226.201 168.072 224.942 169.953 224.528C170.287 224.454 170.695 224.383 171.08 224.372L171.482 226.2L170.726 226.366C169.636 226.606 169.496 227.227 169.686 228.088L169.918 229.143L171.993 228.686L172.387 230.48L170.313 230.936L171.83 237.827L169.703 238.295L168.186 231.404L166.938 231.679L166.543 229.886ZM179.057 227.131L181.202 226.659L183.113 235.343L181.127 235.781L180.713 234.655C180.368 235.598 179.366 236.408 178.206 236.663C176.202 237.104 174.726 236.01 174.258 233.883L173.063 228.451L175.207 227.979L176.236 232.655C176.6 234.307 177.398 234.832 178.593 234.569C179.947 234.271 180.423 233.337 180.059 231.684L179.057 227.131ZM187.28 234.426L185.135 234.898L183.223 226.214L185.21 225.777L185.633 226.863C185.985 225.865 186.927 225.123 188.105 224.863C190.285 224.384 191.708 225.489 192.203 227.74L193.38 233.084L191.235 233.556L190.171 228.721C189.85 227.262 188.974 226.718 187.867 226.962C186.548 227.252 185.941 228.344 186.25 229.75L187.28 234.426ZM198.912 232.105C196.398 232.659 194.428 231.157 193.836 228.468C193.24 225.761 194.396 223.479 197.015 222.902C198.228 222.635 199.413 222.909 200.148 223.65L198.936 218.148L201.063 217.68L203.942 230.759L201.973 231.192L201.535 229.869C201.228 230.987 200.231 231.815 198.912 232.105ZM198.954 230.032C200.448 229.703 201.179 228.418 200.834 226.853C200.49 225.289 199.283 224.412 197.789 224.741C196.295 225.07 195.624 226.378 195.965 227.925C196.305 229.472 197.459 230.361 198.954 230.032ZM204.736 227.819L206.775 227.37C206.959 228.123 207.626 228.473 208.61 228.257C209.612 228.036 210.068 227.512 209.929 226.879C209.832 226.439 209.534 226.173 208.722 226.168L207.076 226.143C205.434 226.136 204.516 225.564 204.21 224.175C203.835 222.47 205.052 221.133 207.056 220.692C209.007 220.262 210.573 221.097 210.962 222.781L208.923 223.23C208.743 222.495 208.146 222.129 207.32 222.311C206.476 222.497 206.069 222.992 206.212 223.642C206.32 224.134 206.777 224.366 207.554 224.379L209.2 224.404C210.732 224.417 211.618 224.922 211.912 226.258C212.299 228.016 211.044 229.435 208.9 229.907C206.737 230.383 205.111 229.525 204.736 227.819Z" fill="#868898"/>
</g>
<rect x="142" y="19" width="56" height="20" rx="10" fill="#CDCED5"/>
</g>
<defs>
<filter id="filter0_d_12023_24418" x="118" y="116" width="230.355" height="125.059" filterUnits="userSpaceOnUse" color-interpolation-filters="sRGB">
<feFlood flood-opacity="0" result="BackgroundImageFix"/>
<feColorMatrix in="SourceAlpha" type="matrix" values="0 0 0 0 0 0 0 0 0 0 0 0 0 0 0 0 0 0 127 0" result="hardAlpha"/>
<feMorphology radius="8" operator="erode" in="SourceAlpha" result="effect1_dropShadow_12023_24418"/>
<feOffset dy="16"/>
<feGaussianBlur stdDeviation="20"/>
<feColorMatrix type="matrix" values="0 0 0 0 0.345098 0 0 0 0 0.360784 0 0 0 0 0.372549 0 0 0 0.16 0"/>
<feBlend mode="normal" in2="BackgroundImageFix" result="effect1_dropShadow_12023_24418"/>
<feBlend mode="normal" in="SourceGraphic" in2="effect1_dropShadow_12023_24418" result="shape"/>
</filter>
<filter id="filter1_d_12023_24418" x="-10" y="40.9999" width="255.764" height="146.955" filterUnits="userSpaceOnUse" color-interpolation-filters="sRGB">
<feFlood flood-opacity="0" result="BackgroundImageFix"/>
<feColorMatrix in="SourceAlpha" type="matrix" values="0 0 0 0 0 0 0 0 0 0 0 0 0 0 0 0 0 0 127 0" result="hardAlpha"/>
<feMorphology radius="8" operator="erode" in="SourceAlpha" result="effect1_dropShadow_12023_24418"/>
<feOffset dy="16"/>
<feGaussianBlur stdDeviation="20"/>
<feColorMatrix type="matrix" values="0 0 0 0 0.345098 0 0 0 0 0.360784 0 0 0 0 0.372549 0 0 0 0.16 0"/>
<feBlend mode="normal" in2="BackgroundImageFix" result="effect1_dropShadow_12023_24418"/>
<feBlend mode="normal" in="SourceGraphic" in2="effect1_dropShadow_12023_24418" result="shape"/>
</filter>
<filter id="filter2_d_12023_24418" x="31" y="179" width="233.508" height="145.918" filterUnits="userSpaceOnUse" color-interpolation-filters="sRGB">
<feFlood flood-opacity="0" result="BackgroundImageFix"/>
<feColorMatrix in="SourceAlpha" type="matrix" values="0 0 0 0 0 0 0 0 0 0 0 0 0 0 0 0 0 0 127 0" result="hardAlpha"/>
<feMorphology radius="8" operator="erode" in="SourceAlpha" result="effect1_dropShadow_12023_24418"/>
<feOffset dy="16"/>
<feGaussianBlur stdDeviation="20"/>
<feColorMatrix type="matrix" values="0 0 0 0 0.345098 0 0 0 0 0.360784 0 0 0 0 0.372549 0 0 0 0.16 0"/>
<feBlend mode="normal" in2="BackgroundImageFix" result="effect1_dropShadow_12023_24418"/>
<feBlend mode="normal" in="SourceGraphic" in2="effect1_dropShadow_12023_24418" result="shape"/>
</filter>
<clipPath id="clip0_12023_24418">
<rect width="339" height="298" fill="white"/>
</clipPath>
</defs>
</svg>
