<svg width="40" height="40" viewBox="0 0 44 44" fill="none" xmlns="http://www.w3.org/2000/svg">
<rect width="44" height="44" rx="16" fill="url(#paint0_linear_15087_35997)"/>
<path d="M22 17.5C23.9096 17.5 25.741 18.2586 27.0912 19.6089C28.4415 20.9591 29.2 22.7905 29.2 24.7C29.2 26.6096 28.4415 28.441 27.0912 29.7912C25.741 31.1415 23.9096 31.9 22 31.9C20.0905 31.9 18.2591 31.1415 16.9089 29.7912C15.5586 28.441 14.8 26.6096 14.8 24.7C14.8 22.7905 15.5586 20.9591 16.9089 19.6089C18.2591 18.2586 20.0905 17.5 22 17.5ZM22 20.65L20.8093 23.062L18.148 23.449L20.074 25.3255L19.6195 27.9769L22 26.725L24.3805 27.976L23.926 25.3255L25.852 23.4481L23.1907 23.0611L22 20.65ZM22.9 12.9991L27.4 13V15.7L26.1733 16.7242C25.1554 16.1902 24.044 15.8574 22.9 15.7441V13V12.9991ZM21.1 12.9991V15.7441C19.9565 15.8572 18.8454 16.1897 17.8276 16.7233L16.6 15.7V13L21.1 12.9991Z" fill="url(#paint1_linear_15087_35997)"/>
<defs>
<linearGradient id="paint0_linear_15087_35997" x1="22" y1="0" x2="22" y2="44" gradientUnits="userSpaceOnUse">
<stop stop-color="#FFDAC2"/>
<stop offset="1" stop-color="#FEF3EB"/>
</linearGradient>
<linearGradient id="paint1_linear_15087_35997" x1="22" y1="12.9991" x2="22" y2="31.9" gradientUnits="userSpaceOnUse">
<stop stop-color="#FF974F"/>
<stop offset="1" stop-color="#FFC7A1"/>
</linearGradient>
</defs>
</svg>
