<svg version="1.1" id="Layer_1" xmlns="http://www.w3.org/2000/svg" xmlns:xlink="http://www.w3.org/1999/xlink" x="0px" y="0px"
	 width="100%" viewBox="0 0 400 288" enable-background="new 0 0 400 288" xml:space="preserve">
<path fill="#000000" opacity="1.000000" stroke="none" 
	d="
M401.000000,123.531342 
	C397.555328,117.855492 395.466217,110.854057 388.876892,106.801872 
	C383.835144,103.701385 378.836884,101.288788 372.671875,101.298523 
	C309.679016,101.398041 246.684937,101.560707 183.693573,101.239990 
	C167.356140,101.156815 154.110291,113.314125 153.434662,131.007172 
	C153.021622,141.823532 153.205627,152.671143 153.393692,163.499985 
	C153.650391,178.281555 165.222244,190.615936 179.746628,192.791962 
	C187.405579,193.939423 195.012222,193.581573 202.638870,193.613449 
	C229.302109,193.724915 255.968765,193.881332 282.628784,193.567368 
	C297.718048,193.389664 311.413452,206.666931 311.359558,222.496841 
	C311.306763,237.994934 311.407745,253.493698 311.321564,268.991486 
	C311.282440,276.023987 313.133881,282.425079 316.964233,288.651672 
	C310.312347,289.000000 303.624725,289.000000 296.468536,289.000000 
	C295.883209,272.850616 295.372864,256.691925 295.754791,240.554337 
	C296.179413,222.612213 280.252594,210.047607 265.519318,210.245041 
	C234.369690,210.662430 203.210037,210.482132 172.055634,210.324036 
	C158.559372,210.255554 148.511612,204.211487 142.809067,191.683426 
	C141.281265,188.326904 140.637375,184.764236 140.643921,181.047241 
	C140.682373,159.221985 140.626312,137.396545 140.681091,115.571358 
	C140.720139,100.014626 154.039764,86.698242 169.675323,86.667549 
	C201.830063,86.604431 233.985001,86.660461 266.139862,86.643974 
	C283.352570,86.635147 295.625671,74.352928 295.646545,57.140076 
	C295.664337,42.478817 295.512817,27.815523 295.725769,13.157337 
	C295.798035,8.182600 294.029510,4.524576 290.077728,1.337486 
	C304.354218,1.000000 318.708466,1.000000 333.411346,1.351602 
	C317.489349,6.811577 310.519043,20.848831 311.271606,35.761150 
	C311.698334,44.217556 311.280884,52.713764 311.365906,61.190819 
	C311.520355,76.589645 325.254883,90.445412 340.603210,90.621353 
	C350.908295,90.739479 361.226898,90.933640 371.518738,90.545219 
	C379.292664,90.251831 386.269867,87.532593 392.126129,81.970924 
	C396.321442,77.986687 397.950623,72.589752 401.000000,68.000000 
	C401.000000,86.354225 401.000000,104.708458 401.000000,123.531342 
z"/>
<path fill="#000000" opacity="1.000000" stroke="none" 
	d="
M133.531342,1.000000 
	C129.464478,3.623522 124.227043,3.185632 119.342049,4.248365 
	C96.422470,9.234531 75.731766,18.852661 57.497173,33.572739 
	C40.767170,47.078228 27.057688,63.202694 17.388285,82.473106 
	C9.622397,97.949951 4.202645,114.242088 2.315634,131.574570 
	C2.211475,132.531281 1.817009,133.456406 1.278835,134.698120 
	C1.000000,90.406616 1.000000,45.813240 1.000000,1.000000 
	C45.020649,1.000000 89.041664,1.000000 133.531342,1.000000 
z"/>
<path fill="#000000" opacity="1.000000" stroke="none" 
	d="
M1.000000,167.468658 
	C3.547229,171.964432 3.055179,177.559204 4.232978,182.818207 
	C9.360693,205.714005 19.106115,226.338898 33.818703,244.606750 
	C47.325817,261.377808 63.692810,274.693268 82.679817,284.807648 
	C85.009216,286.048462 87.419060,287.138275 89.895813,288.649048 
	C60.394966,289.000000 30.789928,289.000000 1.000000,289.000000 
	C1.000000,248.645966 1.000000,208.291641 1.000000,167.468658 
z"/>
<path fill="#000000" opacity="1.000000" stroke="none" 
	d="
M401.000000,23.531263 
	C397.601257,17.832949 395.347443,10.942064 388.856293,6.848320 
	C385.751740,4.890367 382.505219,3.307251 379.128204,1.337807 
	C386.261230,1.000000 393.522491,1.000000 401.000000,1.000000 
	C401.000000,8.352768 401.000000,15.707647 401.000000,23.531263 
z"/>
<path fill="#000000" opacity="1.000000" stroke="none" 
	d="
M396.499939,289.000000 
	C397.438904,285.743073 398.877808,282.486145 400.658356,279.114624 
	C401.000000,282.218414 401.000000,285.436798 401.000000,289.000000 
	C399.680115,289.000000 398.340027,289.000000 396.499939,289.000000 
z"/>
</svg>