<?xml version="1.0" encoding="UTF-8"?>
<svg version="1.1" xmlns="http://www.w3.org/2000/svg" width="400" height="300">
<path d="M0 0 C1.53073522 -0.00764147 3.06146666 -0.01607229 4.5921936 -0.02522278 C8.70733846 -0.04695344 12.82240919 -0.05593507 16.9376049 -0.06104922 C19.51251459 -0.06471229 22.08740535 -0.07096164 24.66230774 -0.07805061 C33.65476321 -0.10245089 42.64716157 -0.11558071 51.63964844 -0.11914062 C60.01114319 -0.12278938 68.38227443 -0.15280409 76.75365782 -0.19454521 C83.95989595 -0.22921318 91.16601302 -0.24468829 98.372334 -0.24538666 C102.66882167 -0.24617935 106.96493617 -0.25491783 111.26133728 -0.28338432 C115.29338894 -0.309512 119.32475598 -0.31180054 123.35685349 -0.29572868 C124.83510708 -0.29391113 126.31339971 -0.30063273 127.79156876 -0.31654739 C129.80995983 -0.33695468 131.82860853 -0.32348572 133.8470459 -0.30833435 C134.97594994 -0.31034568 136.10485397 -0.31235701 137.26796722 -0.31442928 C141.21452343 0.49815184 142.70656103 2.29578261 145.28320312 5.30639648 C145.61320312 5.63639648 145.94320313 5.96639648 146.28320312 6.30639648 C146.39780446 8.03268833 146.44283083 9.76364797 146.46020508 11.49365234 C146.47304031 12.60248276 146.48587555 13.71131317 146.49909973 14.85374451 C146.51018013 16.66915489 146.51018013 16.66915489 146.52148438 18.52124023 C146.52955612 19.76128311 146.53762787 21.00132599 146.54594421 22.27894592 C146.55981211 24.91451776 146.57081813 27.54996343 146.57836914 30.18554688 C146.5871854 32.8752336 146.60794695 35.56439629 146.63989258 38.25390625 C146.68271373 42.13484239 146.69876404 46.01509666 146.70898438 49.89624023 C146.72649246 51.08829575 146.74400055 52.28035126 146.76203918 53.50852966 C146.73711475 63.19692804 144.80235851 71.51478649 138.06054688 78.77124023 C132.42829322 83.63602196 126.20427278 86.42571033 118.76937866 86.43769836 C117.41971512 86.44371063 117.41971512 86.44371063 116.04278564 86.44984436 C115.06299744 86.44931564 114.08320923 86.44878693 113.07373047 86.44824219 C112.03582367 86.45171661 110.99791687 86.45519104 109.92855835 86.45877075 C107.67396963 86.46612258 105.4193737 86.47147102 103.16477585 86.47506142 C99.59112452 86.48223396 96.01760993 86.4979077 92.44400024 86.5164032 C82.2828359 86.56882792 72.12174583 86.61682311 61.96044922 86.63232422 C55.74409913 86.64242884 49.5280924 86.67181855 43.3118782 86.71364403 C40.94774604 86.72592524 38.58356532 86.73108058 36.21940231 86.7288456 C32.90224586 86.72648185 29.5860669 86.74874258 26.26904297 86.77636719 C25.30140015 86.76976578 24.33375732 86.76316437 23.33679199 86.75636292 C13.81348023 86.88588623 5.93754785 89.83186053 -1.02539062 96.37280273 C-6.52694875 102.66211283 -7.83176476 109.3365963 -7.89379883 117.48657227 C-7.90365562 118.56063072 -7.90365562 118.56063072 -7.91371155 119.65638733 C-7.93338796 122.02149575 -7.94509682 124.38654072 -7.95507812 126.75170898 C-7.95915365 127.56300137 -7.96322918 128.37429375 -7.96742821 129.21017075 C-7.98826865 133.50754285 -8.00257698 137.80488326 -8.01196289 142.10229492 C-8.02300035 146.52041671 -8.05737489 150.93803112 -8.09713459 155.3559742 C-8.12340277 158.77056757 -8.1316639 162.18504213 -8.13524437 165.59972763 C-8.140087 167.22707404 -8.15163397 168.85441599 -8.17028236 170.48166275 C-8.29208986 181.81854859 -7.66982252 192.03873147 0.44335938 200.77124023 C8.60498874 207.58126218 17.21206548 208.45565563 27.39086914 208.41650391 C29.49500021 208.41704653 31.59913128 208.41763353 33.70326233 208.41825867 C35.37268733 208.41611642 35.37268733 208.41611642 37.07583809 208.41393089 C42.98940667 208.41040172 48.90288125 208.43622812 54.81640625 208.45678711 C62.3325189 208.48108598 69.84835556 208.49685352 77.36450195 208.48144531 C83.44595664 208.46974521 89.52672797 208.48728579 95.6080761 208.52388954 C97.91753611 208.53247226 100.22706206 208.53047501 102.53650093 208.51738548 C127.6279947 208.38584025 127.6279947 208.38584025 137.74928284 217.53581238 C145.25118178 224.98998869 146.61502845 233.0146277 146.72569275 243.32011414 C146.72128929 245.19084343 146.72128929 245.19084343 146.71679688 247.09936523 C146.72203873 248.40416336 146.72728058 249.70896149 146.73268127 251.05329895 C146.74156087 253.79914108 146.73924579 256.5446915 146.72924805 259.29052734 C146.71771776 262.79767297 146.73805619 266.30381772 146.76716518 269.81083202 C146.78997036 273.17789564 146.7830605 276.54472633 146.77929688 279.91186523 C146.79053085 281.16509079 146.80176483 282.41831635 146.81333923 283.70951843 C146.72627328 294.58463078 146.72627328 294.58463078 142.28320312 299.30639648 C139.52950667 300.68324471 137.31799757 300.43869643 134.23472595 300.44683838 C132.94393631 300.45254852 131.65314667 300.45825867 130.32324219 300.46414185 C128.8840333 300.46538736 127.4448243 300.46651242 126.00561523 300.4675293 C124.49597553 300.47215692 122.98633699 300.47718151 121.47669983 300.48257446 C117.36423817 300.49571975 113.25179286 300.50214942 109.13931346 300.50658512 C106.56454356 300.50951693 103.98977811 300.5136223 101.41501045 300.51808929 C93.34454015 300.53177974 85.27408003 300.5414346 77.20359892 300.54529119 C67.91759133 300.54975352 58.63173229 300.56720941 49.34576982 300.59629178 C42.15401286 300.61802402 34.96229728 300.62800184 27.77050787 300.6293323 C23.48362969 300.6303736 19.19689083 300.63613371 14.91004753 300.65415192 C10.86264956 300.67082948 6.81549255 300.67269451 2.76807213 300.66401291 C1.29648943 300.66325249 -0.17510726 300.6674506 -1.64665604 300.67747116 C-15.71993966 300.76753889 -29.31908205 298.76524645 -42.77929688 294.55639648 C-43.61235352 294.29890625 -44.44541016 294.04141602 -45.30371094 293.77612305 C-59.64335767 289.2152503 -72.30524363 282.79438179 -84.71679688 274.30639648 C-85.27431641 273.92676758 -85.83183594 273.54713867 -86.40625 273.15600586 C-118.7820066 250.69360365 -139.89954633 215.90724821 -147.25195312 177.51171875 C-148.79155334 168.61984021 -149.11782011 159.86338273 -149.09179688 150.86889648 C-149.09092072 150.12516785 -149.09004456 149.38143921 -149.08914185 148.61517334 C-148.97123755 118.1354838 -140.24976414 89.40045589 -122.71679688 64.30639648 C-122.03617188 63.32799805 -121.35554688 62.34959961 -120.65429688 61.34155273 C-96.94756049 28.94501602 -62.38916519 7.99777295 -22.94055176 1.27403259 C-15.28912993 0.11511653 -7.71653691 0.00247586 0 0 Z " fill="#000" transform="translate(148.716796875,-0.306396484375)"/>
<path d="M0 0 C1.24054803 -0.00785502 1.24054803 -0.00785502 2.50615764 -0.01586872 C5.26959631 -0.03083655 8.0328493 -0.03157317 10.79632568 -0.03224182 C12.78096325 -0.03986549 14.76559786 -0.04829335 16.75022888 -0.0574646 C22.13674259 -0.07939657 27.52319953 -0.08820683 32.90975285 -0.09329104 C36.27715031 -0.0969363 39.64453294 -0.10317727 43.01192474 -0.11029243 C54.76574862 -0.13478289 66.51952838 -0.14783786 78.27337646 -0.15138245 C89.21950223 -0.15501687 100.16534745 -0.1849068 111.11138749 -0.22678703 C120.51711684 -0.26150888 129.9227533 -0.27693122 139.32854629 -0.27762848 C144.94262084 -0.27842067 150.5564096 -0.28713309 156.17041779 -0.31562614 C161.45320393 -0.34183885 166.73546796 -0.34399386 172.01828957 -0.3279705 C173.95239973 -0.32615855 175.88654014 -0.3328237 177.82058525 -0.34878922 C196.43173594 -0.49300394 196.43173594 -0.49300394 204.63909912 5.27415466 C205.71159912 5.95477966 206.78409912 6.63540466 207.88909912 7.33665466 C214.10647858 13.05483073 216.95833839 21.34808276 217.39427185 29.57228088 C217.42659825 32.31873053 217.42762424 35.05279581 217.39959717 37.79808044 C217.40610594 39.32056423 217.415178 40.84303885 217.42658997 42.36549377 C217.44948959 46.46482184 217.43506208 50.56320808 217.41212058 54.66250467 C217.39307418 58.97128874 217.40438295 63.28001485 217.411026 67.58882141 C217.41734757 74.81953229 217.39919291 82.04986983 217.36639404 89.28050232 C217.32887815 97.61956314 217.33069637 105.95791799 217.35343522 114.29701626 C217.37443771 122.34884942 217.36708172 130.40042362 217.34711647 138.45225143 C217.33916597 141.86593476 217.34107891 145.27939691 217.35114098 148.69307327 C217.36175012 152.71702154 217.34740116 156.74015384 217.31439781 160.76397324 C217.30624321 162.23363784 217.30641222 163.70337791 217.31587601 165.17303467 C217.36709843 174.11448925 216.53818869 180.69277549 211.63909912 188.27415466 C210.95847412 189.34665466 210.27784912 190.41915466 209.57659912 191.52415466 C203.33831248 198.1584858 195.63965563 200.55326337 186.81697083 200.94639587 C182.8764088 201.02079618 178.94279376 201.01202068 175.00213623 200.94651794 C171.947115 200.89908504 168.89557053 200.90545633 165.840271 200.91868591 C163.87345357 200.90753612 161.90665064 200.8933187 159.93988037 200.87571716 C159.03965652 200.87753998 158.13943268 200.87936279 157.21192932 200.88124084 C148.18024543 200.68138489 141.04644792 197.45325145 134.43206787 191.34056091 C128.97359845 185.04964517 126.5255353 177.76480339 126.49725342 169.56272888 C126.48670174 167.83976089 126.48670174 167.83976089 126.47593689 166.08198547 C126.47177261 164.84344818 126.46760834 163.60491089 126.46331787 162.32884216 C126.44605613 160.37227017 126.42877033 158.41569807 126.41011524 156.45913887 C126.36470341 151.6449032 126.32685565 146.83078016 126.31317139 142.01634216 C126.30499256 139.31505788 126.28630018 136.61423072 126.25624084 133.9131012 C126.22828934 131.37552556 126.21515194 128.83772956 126.21910095 126.30000305 C126.09637923 117.61130514 124.43316587 111.00257531 120.01409912 103.52415466 C114.62052278 98.41445076 107.85327557 94.16118476 100.29695129 94.13612366 C99.40985474 94.13067032 98.52275818 94.12521698 97.60877991 94.11959839 C96.15244392 94.1180349 96.15244392 94.1180349 94.66668701 94.11643982 C93.6418924 94.1113591 92.61709778 94.10627838 91.56124878 94.1010437 C89.3317507 94.09033222 87.10224182 94.0817151 84.87272835 94.07492447 C81.33641591 94.06313267 77.80022544 94.04367578 74.26396179 94.02180481 C64.20765284 93.96022068 54.15135447 93.90627229 44.09490967 93.87278748 C37.94458642 93.85175735 31.79448253 93.81638016 25.6442852 93.77202988 C23.30692579 93.75792795 20.96952754 93.74916066 18.63212776 93.74597549 C-12.82985295 93.69859132 -12.82985295 93.69859132 -22.36090088 84.27415466 C-29.53615554 76.52684098 -31.83650839 68.18571032 -31.75933838 57.77806091 C-31.76220856 56.90447433 -31.76507874 56.03088776 -31.76803589 55.13082886 C-31.77006337 53.29635463 -31.76462639 51.46185814 -31.75201416 49.62742615 C-31.73596095 46.84705878 -31.75189774 44.06814909 -31.77105713 41.28782654 C-31.78676533 28.73549504 -31.48303707 17.82677368 -22.36090088 8.27415466 C-15.45605498 2.07219727 -9.31797331 -0.02939491 0 0 Z " fill="#000" transform="translate(183.36090087890625,99.72584533691406)"/>
<path d="M0 0 C0.86843033 -0.01606293 1.73686066 -0.03212585 2.63160706 -0.04867554 C6.61783894 -0.09342496 10.60390698 -0.13422855 14.59033203 -0.15722656 C16.68419553 -0.17373024 18.77800401 -0.20094568 20.87158203 -0.23925781 C23.90548654 -0.29444152 26.93807111 -0.31596808 29.97241211 -0.33056641 C31.35735619 -0.36457047 31.35735619 -0.36457047 32.77027893 -0.39926147 C41.09880611 -0.37260597 49.16184132 2.76503075 55.31958008 8.55517578 C63.77353888 18.67819536 63.56867403 29.25305146 63.35961914 41.82983398 C63.31218624 44.88485522 63.31855752 47.93639968 63.33178711 50.99169922 C63.32063732 52.95851664 63.3064199 54.92531958 63.28881836 56.89208984 C63.29155258 58.24242561 63.29155258 58.24242561 63.29434204 59.62004089 C63.09448608 68.65172478 59.86635265 75.7855223 53.75366211 82.39990234 C46.36777149 88.80845394 38.36221101 90.34620029 28.89819336 90.43115234 C28.03972809 90.43922409 27.18126282 90.44729584 26.29678345 90.45561218 C24.4795329 90.46942747 22.66225669 90.48016102 20.8449707 90.48803711 C19.00049144 90.49952667 17.15604462 90.51993032 15.31176758 90.54956055 C2.31299784 90.75824035 -8.01037478 90.35217036 -18.55883789 81.89208984 C-25.15748224 75.49919387 -27.49230219 67.55220507 -27.64193726 58.58331299 C-27.6441629 57.77899841 -27.64638855 56.97468384 -27.64868164 56.14599609 C-27.65533844 55.29414734 -27.66199524 54.44229858 -27.66885376 53.56463623 C-27.67893319 51.76951235 -27.68367225 49.97435136 -27.68334961 48.17919922 C-27.68770963 45.46436193 -27.72404194 42.75117009 -27.76196289 40.03662109 C-27.84783362 27.06708515 -26.82223563 16.84052201 -17.47290039 7.07177734 C-12.51102599 2.75593361 -6.60574619 0.11139921 0 0 Z " fill="#000" transform="translate(337.312744140625,-0.19287109375)"/>
</svg>
